<svg fill="white" height="512pt" viewBox="0 0 512.0003 512" width="512pt" xmlns="http://www.w3.org/2000/svg"><path d="m256.816406 512c-6.628906 0-13.28125-.25-19.964844-.75-53.441406-4.019531-103.113281-23.792969-143.644531-57.191406-40.476562-33.359375-69.410156-78.203125-83.667969-129.691406-14.273437-51.535157-12.5-104.894532 5.132813-154.304688 17.667969-49.515625 50.167969-92.011719 93.984375-122.886719 43.800781-30.863281 94.734375-47.175781 147.292969-47.175781 58.363281 0 115.898437 20.8125 162.003906 58.601562 46.148437 37.820313 77.824219 90.1875 89.191406 147.445313 10.253907 51.664063 4.199219 104.855469-17.511719 153.832031-21.710937 48.972656-57.054687 89.167969-102.210937 116.238282-39.40625 23.628906-84.203125 35.882812-130.605469 35.882812zm-.867187-491.984375c-48.410157 0-95.359375 15.050781-135.769531 43.527344-40.421876 28.480469-70.390626 67.644531-86.664063 113.25-16.238281 45.503906-17.863281 94.6875-4.695313 142.230469 13.15625 47.503906 39.820313 88.859374 77.109376 119.585937 37.328124 30.757813 83.117187 48.972656 132.417968 52.679687 49.328125 3.707032 97.316406-7.472656 138.785156-32.339843 41.601563-24.941407 74.179688-62.003907 94.207032-107.183594 20.03125-45.183594 25.625-94.222656 16.175781-141.820313-10.464844-52.71875-39.671875-100.96875-82.242187-135.859374-42.539063-34.867188-95.570313-54.070313-149.324219-54.070313zm0 0"/><path d="m63.917969 266.214844c-5.523438 0-10.007813-4.480469-10.007813-10.007813 0-5.527343 4.472656-10.007812 9.996094-10.007812h.011719c5.523437 0 10.003906 4.480469 10.003906 10.007812 0 5.527344-4.476563 10.007813-10.003906 10.007813zm0 0"/><path d="m457.972656 215.242188c-1.101562-10.207032-5.058594-20.894532-8.609375-30.476563-3.53125-9.535156-7.769531-18.804687-12.667969-27.714844-10.03125-18.25-22.820312-34.972656-37.816406-49.421875-7.488281-7.214844-15.546875-14.789062-23.992187-20.863281-3.472657-2.5-7.40625-4.03125-11.035157-6.257813-4.84375-2.972656-9.820312-5.738281-14.898437-8.285156-19.957031-10.015625-41.554687-16.722656-63.644531-19.929687-42.75-6.207031-86.703125 1.195312-124.957032 21.300781-18.414062 9.675781-35.355468 22.136719-50.074218 36.84375-7.179688 7.171875-13.902344 14.9375-20.40625 22.730469-2.789063 3.339843-5.03125 6.710937-6.914063 10.605469-2.5625 5.300781-6.085937 10.25-8.878906 15.480468-6.09375 11.402344-11.097656 23.378906-14.925781 35.730469-2.574219 8.308594-10.542969 25.890625 1.792968 30.039063 13.566407 4.566406 14.625-15.328126 17.15625-23.578126 3.890626-12.679687 9.097657-25.132812 15.746094-36.621093 15.867188 15.898437 31.761719 31.773437 47.640625 47.664062 14.609375 14.617188 29.21875 29.234375 43.832031 43.847657 9.996094 9.996093 19.992188 19.996093 29.992188 29.996093-33.703125 0-67.410156-.101562-101.113281-.101562-15.316407 0-30.636719 0-45.949219 0-3.324219 0-6.667969-.296875-9.609375 1.609375-8.496094 5.511718-2.921875 18.402344-.890625 25.773437 8.890625 32.300781 26.828125 61.949219 50.097656 85.925781 5.757813 5.9375 12.035156 11.277344 18.046875 16.945313 2.828125 2.664063 5.703125 5.304687 8.910157 7.511719 3.042968 2.09375 6.402343 3.40625 9.449218 5.457031 14.902344 10.023437 31.832032 17.546875 48.90625 22.96875 34.5625 10.980469 71.949219 12.953125 107.371094 5.132813 30.960938-6.839844 60.167969-21.070313 84.84375-40.960938 25.207031-20.320312 45.445312-46.476562 58.71875-76.019531 14.75-32.835938 19.605469-68.566407 17.929688-104.347657-.332032-7.03125-.953126-14.550781-4.050782-20.984374-.039062-.371094 4.171875 8.664062 0 0zm-103.175781-100.378907c2.328125-2.363281 4.355469-4.992187 6.578125-7.457031.625-.695312 1.605469-2.234375 2.515625-2.625 1.539063-.65625 1.796875.1875 3.300781 1.46875 4.078125 3.480469 8.132813 7.011719 12.144532 10.566406 8.921874 7.914063 17.082031 16.679688 24.335937 26.144532 14.410156 18.800781 25.269531 40.367187 31.609375 63.203124-19.417969 0-38.839844 0-58.257812 0-30.789063 0-61.574219 0-92.363282 0-7.089844 0-14.183594 0-21.277344 0 27.300782-26.429687 53.828126-53.691406 80.6875-80.5625 3.550782-3.550781 7.417969-6.957031 10.726563-10.738281 1.410156-1.433593-.070313.078125 0 0zm-98.917969 112.679688c11.886719 0 23.113282 5.519531 27.808594 16.875 4.480469 10.832031 2.585938 24.792969-6.324219 32.8125-10.0625 9.058593-26.683593 10.015625-38.230469 3.324219-11.199218-6.488282-15.226562-20.089844-12.226562-32.320313 3.269531-13.335937 15.78125-20.691406 28.972656-20.691406zm-30.511718-99.421875c.210937-16.324219.566406-32.644532.226562-48.964844-.03125-1.488281-.46875-3.988281.058594-5.394531.699218-1.875.585937-1.355469 3.035156-1.710938 3.84375-.558593 7.699219-1.003906 11.570312-1.324219 7.253907-.59375 14.546876-.753906 21.820313-.488281 29.503906 1.066407 59.625 8.945313 85.265625 23.777344-16.996094 17-33.988281 33.996094-50.980469 50.996094-13.773437 13.777343-27.550781 27.550781-41.324219 41.332031-10.03125 10.035156-20.0625 20.074219-30.09375 30.109375-.359374-29.445313.023438-58.890625.421876-88.332031.179687-13.828125-.390626 29.035156 0 0zm-19.441407 120.648437c-19.816406-19.828125-39.570312-39.71875-59.390625-59.542969-9.414062-9.417968-18.828125-18.835937-28.242187-28.25-3.105469-3.109374-6.289063-6.027343-9.617188-8.921874-1.105469-.964844-2.226562-1.921876-3.257812-2.964844-1.671875-1.691406-1.386719-1.253906-.191407-3.070313 1.710938-2.605469 4.300782-4.859375 6.332032-7.214843 4.527344-5.242188 9.015625-10.445313 13.960937-15.304688 22.25-21.855469 50.230469-38.382812 80.367188-46.609375-.070313 20.949219.039062 41.90625.039062 62.859375v88.40625zm-51.242187 151.28125c-1.785156 1.792969-3.285156 3.898438-4.960938 5.792969-.519531.589844-1.660156 2.386719-2.363281 2.503906-.394531.0625-2.191406-1.53125-2.402344-1.699218-4.351562-3.394532-8.226562-7.457032-12.359375-11.117188-9.117187-8.078125-17.472656-17.035156-24.902344-26.691406-14.285156-18.578125-25.308593-39.867188-31.21875-62.59375h58.570313 93.300781 21.347656c-31.09375 31.84375-63.332031 62.542968-95.011718 93.804687zm131.460937 39.890625c-41.988281 7.007813-84.222656-1.816406-121.523437-21.566406 14.105468-13.925781 28.019531-28.070312 42.035156-42.09375 21.472656-21.476562 42.941406-42.957031 64.414062-64.433594 4.992188-4.996094 9.988282-9.992187 14.984376-14.992187 0 38.621093-.089844 77.246093-.089844 115.867187 0 8.992188 1.011718 18.324219.179687 27.21875-.058593.007813.308594-3.3125 0 0zm120.925781-75.011718c-24.070312 33.347656-60.871093 60.566406-101.097656 70.636718 0-19.421875 0-38.84375 0-58.265625 0-30.789062 0-61.582031 0-92.371093 0-7.09375 0-14.1875 0-21.28125 29.875 29.894531 59.6875 59.851562 89.566406 89.738281 3.84375 3.84375 7.742188 7.652343 11.53125 11.542969zm35.066407-112.679688c-.4375 33.820312-7.53125 65.679688-24.023438 95.417969-17.6875-17.695313-35.375-35.386719-53.0625-53.082031-12.773437-12.777344-25.546875-25.554688-38.320312-38.332032-10.054688-10.054687-20.109375-20.109375-30.160157-30.164062 43.40625 0 86.8125.089844 130.21875.089844 3.761719 0 12.503907-2.171876 13.957032 0 1.261718 1.890624.960937 6.402343 1.101562 8.550781.390625 5.828125.382813 11.683593.289063 17.519531-.023438 1.550781.25-15.378906 0 0zm0 0"/></svg>